<svg xmlns="http://www.w3.org/2000/svg" width="70" height="65" viewBox="0 0 26 22" fill="none">
<path d="M8.7 21.3333C8.16667 21.3333 7.7 21.1333 7.3 20.7333C6.9 20.3333 6.7 19.8667 6.7 19.3333V16H10.8333V11.7667C9.98889 11.8333 9.14445 11.7167 8.3 11.4167C7.45556 11.1167 6.7 10.6444 6.03333 10V8.06667H4.36667L0 3.7C0.8 2.94444 1.75556 2.32778 2.86667 1.85C3.97778 1.37222 5.11111 1.13333 6.26667 1.13333C6.93333 1.13333 7.69444 1.23889 8.55 1.45C9.40556 1.66111 10.1667 2 10.8333 2.46667V0H26V17.8333C26 18.8111 25.6611 19.6389 24.9833 20.3167C24.3056 20.9944 23.4778 21.3333 22.5 21.3333H8.7ZM12.8333 16H21V17.8333C21 18.2778 21.1389 18.6389 21.4167 18.9167C21.6944 19.1944 22.0556 19.3333 22.5 19.3333C22.9444 19.3333 23.3056 19.1944 23.5833 18.9167C23.8611 18.6389 24 18.2778 24 17.8333V2H12.8333V3.9L20.8667 11.9333V13.3667H19.4333L15.2333 9.16667L14.6667 9.83333C14.3778 10.1667 14.0889 10.4222 13.8 10.6C13.5111 10.7778 13.1889 10.9444 12.8333 11.1V16ZM5.26667 6.06667H8.03333V9.03333C8.41111 9.27778 8.78333 9.46111 9.15 9.58333C9.51667 9.70556 9.88889 9.76667 10.2667 9.76667C10.8222 9.76667 11.3889 9.61667 11.9667 9.31667C12.5444 9.01667 12.9667 8.71111 13.2333 8.4L13.8 7.73333L11.5 5.43333C10.7889 4.72222 9.98889 4.16111 9.1 3.75C8.21111 3.33889 7.26667 3.13333 6.26667 3.13333C5.66667 3.13333 5.12222 3.20556 4.63333 3.35C4.14444 3.49444 3.64444 3.68889 3.13333 3.93333L5.26667 6.06667ZM19 18H8.7V19.3333H19.4667C19.3333 19.2 19.2222 19.0167 19.1333 18.7833C19.0444 18.55 19 18.2889 19 18Z" fill="white"/>
</svg>